<?xml version="1.0" encoding="UTF-8"?>
<svg width="187px" height="242px" viewBox="0 0 187 242" version="1.1" xmlns="http://www.w3.org/2000/svg" xmlns:xlink="http://www.w3.org/1999/xlink">
    <!-- Generator: Sketch 49 (51002) - http://www.bohemiancoding.com/sketch -->
    <title>wave</title>
    <desc>Created with Sketch.</desc>
    <defs></defs>
    <g id="latest" stroke="none" stroke-width="1" fill="none" fill-rule="evenodd">
        <g id="Artboard-4-Copy" transform="translate(-627.000000, -139.000000)">
            <g id="Group-3" transform="translate(352.000000, 88.000000)">
                <g id="wave" transform="translate(277.000000, 53.000000)">
                    <g id="Group-2">
                        <path d="M29.8357624,50.1225612 C-10.5439495,71.2413085 9.2701801,120.883824 0.456359102,162.161227 C-4.647607,186.064421 119.396439,159.656081 134.362044,127.581536 C157.892873,139.662687 175.730825,147.32187 173.794839,145.379001 C167.918958,139.482229 164.981018,127.688685 162.043077,98.2048259 C154.941511,26.9366743 73.9048674,16.3621196 38.6495834,42.541543 C35.248735,45.0669021 30.1857141,49.9395351 29.8357624,50.1225612 Z" id="Path-8-Copy-2" fill="#FFFFFF"></path>
                        <path d="M12.2081204,74.3482053 C-2.48158123,100.883679 9.81966624,139.212696 3.39429944,165.74817 C21.0219414,165.74817 38.9935323,168.696556 59.2151658,159.851398 C47.4634044,151.00624 31.2180928,139.212696 29.8357624,121.522381 C35.7116431,115.625609 38.9935323,100.348578 38.9935323,86.1798713 C47.4634044,100.348578 70.5641669,107.663889 79.7807481,108.37286 C97.4083901,109.728837 115.036032,109.728837 126.787793,109.728837 C132.709178,109.728837 138.539555,112.677223 141.477495,112.677223 C138.539555,139.212696 132.663674,147.308506 123.849853,156.903012 C141.477495,156.903012 156.119891,151.745486 169.347396,147.308506 C147.353376,121.522381 169.347396,62.5546615 115.036032,41.9159599 C61.9186575,21.7309827 24.1444359,52.786448 12.2081204,74.3482053 Z" id="Path-10-Copy" fill="#465A7A" opacity="0.349999994"></path>
                        <ellipse id="Oval-8-Copy-6" fill="#1B4385" cx="57.7461956" cy="128.254789" rx="4.4069105" ry="4.42257893"></ellipse>
                        <ellipse id="Oval-8-Copy-7" fill="#1B4385" cx="110.629122" cy="122.358017" rx="4.4069105" ry="4.42257893"></ellipse>
                        <path d="M85.6566288,114.987052 C86.6359422,120.883824 87.6152557,124.815005 88.5945691,126.780596" id="Path-5-Copy-3" stroke="#1B4385" stroke-width="3.20548839" stroke-linecap="round" stroke-linejoin="round"></path>
                        <path d="M26.8978221,120.883824 C35.7116431,150.367683 62.8434858,168.088971 88.5945691,165.109613 C114.077958,162.161227 138.539555,144.470912 138.539555,112.038666" id="Path-6-Copy-3" stroke="#1B4385" stroke-width="3.20548839" stroke-linecap="round" stroke-linejoin="round"></path>
                        <path d="M32.7737028,76.6580347 C38.6495834,94.3483504 59.2151658,106.141894 76.8428078,109.09028" id="Path-7-Copy-18" stroke="#1B4385" stroke-width="3.20548839" stroke-linecap="round" stroke-linejoin="round"></path>
                        <path d="M35.7116431,91.3999645 C35.7116431,112.038666 29.8357624,117.935438 23.9598818,123.83221" id="Path-7-Copy-19" stroke="#1B4385" stroke-width="3.20548839" stroke-linecap="round" stroke-linejoin="round"></path>
                        <path d="M38.6495834,42.541543 C73.9048674,16.3621196 154.941511,26.9366743 162.043077,98.2048259 C164.981018,127.688685 167.918958,139.482229 173.794839,145.379001" id="Path-7-Copy-20" stroke="#1B4385" stroke-width="3.20548839" stroke-linecap="round" stroke-linejoin="round"></path>
                        <path d="M73.9048674,100.245122 C76.8428078,103.193508 79.7807481,106.141894 94.4704498,109.09028" id="Path-7-Copy-21" stroke="#1B4385" stroke-width="3.20548839" stroke-linecap="round" stroke-linejoin="round"></path>
                        <path d="M97.4083901,100.245122 C100.34633,103.193508 103.284271,106.141894 117.973972,109.09028" id="Path-7-Copy-22" stroke="#1B4385" stroke-width="3.20548839" stroke-linecap="round" stroke-linejoin="round"></path>
                        <path d="M120.911913,103.193508 C123.849853,106.141894 126.787793,109.09028 141.477495,112.038666" id="Path-7-Copy-23" stroke="#1B4385" stroke-width="3.20548839" stroke-linecap="round" stroke-linejoin="round"></path>
                        <path d="M159.105137,147.419298 C162.043077,150.367683 164.981018,150.367683 167.918958,150.367683" id="Path-7-Copy-24" stroke="#1B4385" stroke-width="3.20548839" stroke-linecap="round" stroke-linejoin="round"></path>
                        <path d="M147.353376,150.367683 C150.291316,153.316069 153.229256,153.316069 156.167197,153.316069" id="Path-7-Copy-25" stroke="#1B4385" stroke-width="3.20548839" stroke-linecap="round" stroke-linejoin="round"></path>
                        <path d="M132.663674,153.316069 C135.601614,156.264455 138.539555,156.264455 141.477495,156.264455" id="Path-7-Copy-26" stroke="#1B4385" stroke-width="3.20548839" stroke-linecap="round" stroke-linejoin="round"></path>
                        <path d="M5.88333317,162.074133 C8.8212735,165.022519 11.7592138,165.022519 14.6971542,165.022519" id="Path-7-Copy-27" stroke="#1B4385" stroke-width="3.20548839" stroke-linecap="round" stroke-linejoin="round" transform="translate(10.290244, 163.548326) rotate(-50.000000) translate(-10.290244, -163.548326) "></path>
                        <path d="M23.5109752,162.074133 C26.4489155,165.022519 29.3868558,165.022519 32.3247962,165.022519" id="Path-7-Copy-28" stroke="#1B4385" stroke-width="3.20548839" stroke-linecap="round" stroke-linejoin="round" transform="translate(27.917886, 163.548326) rotate(-50.000000) translate(-27.917886, -163.548326) "></path>
                        <path d="M41.1386172,162.074133 C44.0765575,165.022519 47.0144978,165.022519 49.9524382,165.022519" id="Path-7-Copy-29" stroke="#1B4385" stroke-width="3.20548839" stroke-linecap="round" stroke-linejoin="round" transform="translate(45.545528, 163.548326) rotate(-50.000000) translate(-45.545528, -163.548326) "></path>
                        <path d="M29.8357624,50.1225612 C-10.5439495,71.2413085 9.2701801,120.883824 0.456359102,162.161227" id="Path-8-Copy-2" stroke="#1B4385" stroke-width="3.20548839" stroke-linecap="round" stroke-linejoin="round"></path>
                        <g id="Group-7" transform="translate(0.000000, 29.312977)"></g>
                        <path d="M79.3490967,143.532742 C85.6566288,147.419298 94.4704498,147.419298 99.6140138,141.287439" id="Path-9" stroke="#1B4385" stroke-width="3.20548839" stroke-linecap="round" stroke-linejoin="round"></path>
                        <path d="M147.353376,114.987052 C138.60886,151.125847 120.911913,150.367683 123.849853,162.588124 C125.545569,169.641501 153.800355,167.607156 156.971421,168.484896 C176.732779,173.954771 183.619876,122.090733 179.670719,94.3483504 C176.732779,73.7096488 159.442083,52.3286433 156.737782,55.6481811 C154.934914,57.8612064 151.806779,77.64083 147.353376,114.987052 Z" id="Path-4" fill="#FFFFFF"></path>
                        <path d="M97.4083901,162.161227 C104.758944,160.931779 111.305876,158.773534 117.973972,153.316069 C127.296891,145.685781 138.539555,124.81119 138.539555,117.935438 C138.539555,102.811496 132.663674,103.193508 125.198027,127.35973 C121.965586,137.82311 102.522952,159.212841 79.7807481,159.212841 C52.5991854,159.212841 26.8978221,129.728982 47.4634044,150.367683 C61.7443632,164.699417 70.6823804,166.631399 97.4083901,162.161227 Z" id="Path-17" fill="#2B6BD5" style="mix-blend-mode: multiply;" opacity="0.049999997"></path>
                        <path d="M147.353376,141.522526 C164.981018,135.625754 174.074461,33.4235063 177.012402,59.9589798 C180.594392,92.3115144 177.012402,138.57414 165.055722,161.263052 C162.43515,166.23583 129.001131,147.66169 147.353376,141.522526 Z" id="Combined-Shape" fill="#2B6BD5" style="mix-blend-mode: multiply;" opacity="0.049999997"></path>
                        <path d="M52.1862961,160.204102 C72.7518784,169.04926 97.4083901,171.997646 115.036032,157.255716 C128.168276,146.27327 184.763732,146.982744 162.043077,188.433077 C147.353376,215.232174 136.045617,245.947393 62.1531061,238.819262 C52.1644759,237.855697 29.8357624,227.025718 22.8068927,201.481505 C19.4534835,189.294596 41.0404597,155.410332 52.1862961,160.204102 Z" id="Combined-Shape-Copy" fill="#2B6BD5" style="mix-blend-mode: multiply;" opacity="0.049999997"></path>
                        <path d="M126.787793,156.264455 C144.415435,138.57414 151.321776,104.159347 153.459152,77.7219077 C156.167197,44.2257893 147.737892,44.2257893 141.70739,33.4961184 C138.317273,27.4643074 132.893569,17.4485405 147.737892,26.513869 C151.41063,28.7567857 138.439407,10.1620927 141.70739,5.8967719 C143.481757,3.58089667 147.787799,14.3059616 150.291316,11.7935438 C153.229256,8.84515785 147.353376,-6.6856928e-13 153.229256,0 C156.167197,3.35205534e-13 157.036385,8.84515785 159.105137,8.84515785 C161.173889,8.84515785 159.105137,3.36433393e-13 162.043077,1.2278591e-15 C164.981018,-3.32749816e-13 167.918958,11.7935438 167.918958,11.7935438 C167.918958,11.7935438 173.794839,2.54166834e-13 173.794839,5.8967719 C173.794839,11.5386548 184.347801,52.528386 182.60866,94.3483504 C181.136615,129.745615 165.850206,178.736573 167.918958,176.903157" id="Path-18" stroke="#1B4385" stroke-width="3.20548839" stroke-linecap="round" stroke-linejoin="round"></path>
                        <path d="M69.4979569,163.63542 C76.3531511,168.549397 82.7186884,171.006385 88.5945691,171.006385 C94.4704498,171.006385 100.835987,167.566602 107.691181,160.687034" id="Line" stroke="#1B4385" stroke-width="3.20548839" stroke-linecap="round" stroke-linejoin="round"></path>
                        <path d="M137.070585,137.099947 C141.472712,135.627354 167.918958,153.316069 173.794839,156.264455 C178.702578,158.72705 170.856898,159.212841 173.794839,165.109613 C176.732779,171.006385 126.795563,150.359886 132.663674,144.470912 C135.601614,141.522526 132.663674,138.57414 137.070585,137.099947 Z" id="Line-2" stroke="#1B4385" stroke-width="3.20548839" fill="#FFFFFF" stroke-linecap="round" stroke-linejoin="round"></path>
                    </g>
                </g>
            </g>
        </g>
    </g>
</svg>