<?xml version="1.0" encoding="UTF-8"?>
<svg width="350px" height="453px" viewBox="0 0 350 453" version="1.1" xmlns="http://www.w3.org/2000/svg" xmlns:xlink="http://www.w3.org/1999/xlink">
    <!-- Generator: Sketch 48.1 (47250) - http://www.bohemiancoding.com/sketch -->
    <title>Group 2</title>
    <desc>Created with Sketch.</desc>
    <defs></defs>
    <g id="Desktop-HD-Copy-7" stroke="none" stroke-width="1" fill="none" fill-rule="evenodd" transform="translate(-957.000000, -267.000000)">
        <g id="Group-Copy" transform="translate(960.000000, 270.000000)">
            <g id="Group-2">
                <path d="M56.0847119,93.9798022 C-19.8203203,133.577453 17.4259123,226.65717 0.857855362,304.052301 C-8.73648529,348.870789 224.439208,299.355153 252.571274,239.215381 C296.804089,261.867538 330.33554,276.228507 326.696309,272.585627 C315.650938,261.52918 310.128252,239.416285 304.605566,184.134049 C291.256174,50.5062643 138.924997,30.6789743 72.6527689,79.7653932 C66.2599171,84.5004414 56.7425446,93.6366282 56.0847119,93.9798022 Z" id="Path-8-Copy-2" fill="#FFFFFF"></path>
                <path d="M22.948598,139.402885 C-4.66483029,189.156898 18.4588262,261.023805 6.38054102,310.777818 C39.5166549,310.777818 73.2993176,316.306042 111.311568,299.721371 C89.2208258,283.1367 58.6831909,261.023805 56.0847119,227.854463 C67.1300832,216.798016 73.2993176,188.153585 73.2993176,161.587259 C89.2208258,188.153585 132.64521,201.869792 149.970368,203.199112 C183.106482,205.741569 216.242596,205.741569 238.333338,205.741569 C249.464246,205.741569 260.424081,211.269793 265.946767,211.269793 C260.424081,261.023805 249.37871,276.203448 232.810653,294.193147 C265.946767,294.193147 293.47127,284.522786 318.33609,276.203448 C276.992138,227.854463 318.33609,117.28999 216.242596,78.5924247 C116.393542,40.7455926 45.386262,98.97459 22.948598,139.402885 Z" id="Path-10-Copy" fill="#C1C1C6"></path>
                <ellipse id="Oval-8-Copy-6" fill="#164AA1" cx="108.550226" cy="240.477729" rx="8.28402848" ry="8.29233549"></ellipse>
                <ellipse id="Oval-8-Copy-7" fill="#164AA1" cx="207.958567" cy="229.421282" rx="8.28402848" ry="8.29233549"></ellipse>
                <path d="M161.015739,215.600723 C162.856635,226.65717 164.69753,234.028135 166.538425,237.713617" id="Path-5-Copy-3" stroke="#164AA1" stroke-width="6.01029073" stroke-linecap="round" stroke-linejoin="round"></path>
                <path d="M50.5620262,226.65717 C67.1300832,281.939407 118.132017,315.166821 166.538425,309.580525 C214.441626,304.052301 260.424081,270.882959 260.424081,210.072499" id="Path-6-Copy-3" stroke="#164AA1" stroke-width="6.01029073" stroke-linecap="round" stroke-linejoin="round"></path>
                <path d="M61.6073976,143.733815 C72.6527689,176.903157 111.311568,199.016052 144.447682,204.544275" id="Path-7-Copy-18" stroke="#164AA1" stroke-width="6.01029073" stroke-linecap="round" stroke-linejoin="round"></path>
                <path d="M67.1300832,171.374933 C67.1300832,210.072499 56.0847119,221.128946 45.0393406,232.185394" id="Path-7-Copy-19" stroke="#164AA1" stroke-width="6.01029073" stroke-linecap="round" stroke-linejoin="round"></path>
                <path d="M72.6527689,79.7653932 C138.924997,30.6789743 291.256174,50.5062643 304.605566,184.134049 C310.128252,239.416285 315.650938,261.52918 326.696309,272.585627" id="Path-7-Copy-20" stroke="#164AA1" stroke-width="6.01029073" stroke-linecap="round" stroke-linejoin="round"></path>
                <path d="M138.924997,187.959604 C144.447682,193.487828 149.970368,199.016052 177.583796,204.544275" id="Path-7-Copy-21" stroke="#164AA1" stroke-width="6.01029073" stroke-linecap="round" stroke-linejoin="round"></path>
                <path d="M183.106482,187.959604 C188.629168,193.487828 194.151853,199.016052 221.765282,204.544275" id="Path-7-Copy-22" stroke="#164AA1" stroke-width="6.01029073" stroke-linecap="round" stroke-linejoin="round"></path>
                <path d="M227.287967,193.487828 C232.810653,199.016052 238.333338,204.544275 265.946767,210.072499" id="Path-7-Copy-23" stroke="#164AA1" stroke-width="6.01029073" stroke-linecap="round" stroke-linejoin="round"></path>
                <path d="M299.082881,276.411183 C304.605566,281.939407 310.128252,281.939407 315.650938,281.939407" id="Path-7-Copy-24" stroke="#164AA1" stroke-width="6.01029073" stroke-linecap="round" stroke-linejoin="round"></path>
                <path d="M276.992138,281.939407 C282.514824,287.46763 288.037509,287.46763 293.560195,287.46763" id="Path-7-Copy-25" stroke="#164AA1" stroke-width="6.01029073" stroke-linecap="round" stroke-linejoin="round"></path>
                <path d="M249.37871,287.46763 C254.901395,292.995854 260.424081,292.995854 265.946767,292.995854" id="Path-7-Copy-26" stroke="#164AA1" stroke-width="6.01029073" stroke-linecap="round" stroke-linejoin="round"></path>
                <path d="M11.0593804,303.889 C16.582066,309.417224 22.1047517,309.417224 27.6274373,309.417224" id="Path-7-Copy-27" stroke="#164AA1" stroke-width="6.01029073" stroke-linecap="round" stroke-linejoin="round" transform="translate(19.343409, 306.653112) rotate(-50.000000) translate(-19.343409, -306.653112) "></path>
                <path d="M44.1954943,303.889 C49.71818,309.417224 55.2408656,309.417224 60.7635513,309.417224" id="Path-7-Copy-28" stroke="#164AA1" stroke-width="6.01029073" stroke-linecap="round" stroke-linejoin="round" transform="translate(52.479523, 306.653112) rotate(-50.000000) translate(-52.479523, -306.653112) "></path>
                <path d="M77.3316082,303.889 C82.8542939,309.417224 88.3769795,309.417224 93.8996652,309.417224" id="Path-7-Copy-29" stroke="#164AA1" stroke-width="6.01029073" stroke-linecap="round" stroke-linejoin="round" transform="translate(85.615637, 306.653112) rotate(-50.000000) translate(-85.615637, -306.653112) "></path>
                <path d="M56.0847119,93.9798022 C-19.8203203,133.577453 17.4259123,226.65717 0.857855362,304.052301" id="Path-8-Copy-2" stroke="#164AA1" stroke-width="6.01029073" stroke-linecap="round" stroke-linejoin="round"></path>
                <g id="Group-7" transform="translate(0.000000, 54.961832)"></g>
                <path d="M149.158958,269.123891 C161.015739,276.411183 177.583796,276.411183 187.252572,264.913948" id="Path-9" stroke="#164AA1" stroke-width="6.01029073" stroke-linecap="round" stroke-linejoin="round"></path>
                <path d="M276.992138,215.600723 C260.55436,283.360964 227.287967,281.939407 232.810653,304.852733 C235.998229,318.077814 289.111049,314.263418 295.07196,315.909181 C332.218995,326.165196 345.165232,228.920125 337.74168,176.903157 C332.218995,138.205591 299.716266,98.1162061 294.63277,104.34034 C291.243773,108.489762 285.363562,145.576556 276.992138,215.600723 Z" id="Path-4" fill="#FFFFFF"></path>
                <path d="M183.106482,304.052301 C196.923916,301.747086 209.230718,297.700376 221.765282,287.46763 C239.290331,273.16084 260.424081,234.020981 260.424081,221.128946 C260.424081,192.771554 249.37871,193.487828 235.344926,238.799494 C229.268643,258.41833 192.720741,298.524078 149.970368,298.524078 C98.8749714,298.524078 50.5620262,243.241841 89.2208258,281.939407 C116.065907,308.811407 132.867425,312.433874 183.106482,304.052301 Z" id="Path-17" fill="#164AA1" style="mix-blend-mode: multiply;" opacity="0.049999997"></path>
                <path d="M276.992138,265.354736 C310.128252,254.298288 327.221938,62.6690742 332.744624,112.423087 C339.477983,173.08409 332.744624,259.826512 310.268679,302.368223 C305.342577,311.692182 242.49393,276.86567 276.992138,265.354736 Z" id="Combined-Shape" fill="#164AA1" style="mix-blend-mode: multiply;" opacity="0.049999997"></path>
                <path d="M98.0988298,300.382692 C136.757629,316.967363 183.106482,322.495586 216.242596,294.854468 C240.928345,274.262382 347.315431,275.592645 304.605566,353.31202 C276.992138,403.560327 255.736023,461.151363 116.834254,447.786116 C98.0578126,445.979431 56.0847119,425.673222 42.8719733,377.777823 C36.5682969,354.927368 77.1470936,291.394372 98.0988298,300.382692 Z" id="Combined-Shape-Copy" fill="#164AA1" style="mix-blend-mode: multiply;" opacity="0.049999997"></path>
                <path d="M238.333338,292.995854 C271.469452,259.826512 284.451863,195.298775 288.469662,145.728577 C293.560195,82.9233549 277.714944,82.9233549 266.378919,62.8052221 C260.006239,51.4955764 249.810862,32.7160134 277.714944,49.7135044 C284.618889,53.9189731 260.235825,19.0539237 266.378919,11.0564473 C269.71434,6.71418126 277.808759,26.823678 282.514824,22.1128946 C288.037509,16.584671 276.992138,-1.2535674e-12 288.037509,0 C293.560195,6.28510376e-13 295.19408,16.584671 299.082881,16.584671 C302.971682,16.584671 299.082881,6.30812612e-13 304.605566,2.30223581e-15 C310.128252,-6.23905905e-13 315.650938,22.1128946 315.650938,22.1128946 C315.650938,22.1128946 326.696309,4.76562813e-13 326.696309,11.0564473 C326.696309,21.6349778 346.533571,98.4907237 343.264366,176.903157 C340.497244,243.273028 311.762137,335.131074 315.650938,331.693419" id="Path-18" stroke="#164AA1" stroke-width="6.01029073" stroke-linecap="round" stroke-linejoin="round"></path>
                <path d="M130.640968,306.816413 C143.527235,316.030119 155.493054,320.636972 166.538425,320.636972 C177.583796,320.636972 189.549615,314.187378 202.435882,301.288189" id="Line" stroke="#164AA1" stroke-width="6.01029073" stroke-linecap="round" stroke-linejoin="round"></path>
                <path d="M257.662738,257.0624 C265.937775,254.301289 315.650938,287.46763 326.696309,292.995854 C335.921786,297.613218 321.173623,298.524078 326.696309,309.580525 C332.218995,320.636972 238.347944,281.924786 249.37871,270.882959 C254.901395,265.354736 249.37871,259.826512 257.662738,257.0624 Z" id="Line-2" stroke="#164AA1" stroke-width="6.01029073" fill="#FFFFFF" stroke-linecap="round" stroke-linejoin="round"></path>
            </g>
        </g>
    </g>
</svg>